<?xml version="1.0" standalone="no"?>
<!DOCTYPE svg PUBLIC "-//W3C//DTD SVG 20010904//EN"
 "http://www.w3.org/TR/2001/REC-SVG-20010904/DTD/svg10.dtd">
<svg version="1.0" xmlns="http://www.w3.org/2000/svg"
 width="1238.000000pt" height="991.000000pt" viewBox="0 0 1238.000000 991.000000"
 preserveAspectRatio="xMidYMid meet">

<g transform="translate(0.000000,991.000000) scale(0.100000,-0.100000)"
fill="#000000" stroke="none">
<path d="M5887 7914 c-153 -19 -395 -80 -527 -133 -713 -285 -1214 -866 -1380
-1602 -15 -65 -50 -294 -50 -325 0 -2 58 -4 130 -4 l129 0 6 38 c76 503 266
893 600 1227 219 220 461 371 743 465 539 179 1142 100 1666 -218 385 -235
706 -634 841 -1045 42 -129 75 -284 82 -389 l6 -78 118 0 119 0 0 93 c0 184
-86 489 -205 732 -172 349 -412 630 -732 854 -274 193 -602 324 -941 377 -143
22 -461 27 -605 8z"/>
<path d="M6095 7374 c-415 -31 -797 -198 -1108 -484 -210 -194 -393 -502 -461
-780 -25 -103 -45 -254 -35 -261 15 -9 282 -10 295 -2 7 5 19 45 29 91 119
585 577 1042 1125 1123 104 15 358 6 460 -16 581 -127 1023 -560 1118 -1096
l18 -104 139 -3 c76 -1 142 1 147 6 19 19 -43 289 -99 432 -252 643 -820 1067
-1463 1093 -63 3 -137 3 -165 1z"/>
<path d="M5990 6755 c-243 -55 -426 -149 -587 -302 -160 -152 -277 -367 -307
-560 l-6 -43 255 0 255 0 0 265 0 265 200 0 200 0 2 -262 c3 -262 3 -263 21
-228 11 19 89 140 175 268 l155 232 239 0 c131 0 238 -2 238 -5 0 -3 -100
-118 -222 -256 -123 -138 -223 -256 -223 -262 0 -9 111 -13 418 -15 l418 -2
-7 37 c-4 21 -20 79 -36 128 -118 353 -384 622 -713 721 -77 23 -112 27 -250
30 -116 3 -178 0 -225 -11z"/>
<path d="M8010 5464 c-109 -174 -189 -312 -186 -320 4 -11 29 -14 115 -14
l110 0 -30 -82 c-103 -281 -243 -506 -445 -717 -259 -271 -582 -457 -952 -551
-189 -48 -252 -55 -472 -54 -184 0 -218 3 -333 27 -322 68 -654 221 -892 409
-405 321 -684 806 -730 1268 -3 36 -8 78 -11 93 l-6 28 -121 -3 -122 -3 3 -55
c4 -81 38 -271 67 -377 77 -287 226 -581 415 -818 132 -165 332 -347 509 -462
1079 -704 2505 -372 3158 736 77 130 144 279 194 433 l43 128 138 0 c113 0
140 3 144 15 7 18 -372 625 -391 625 -7 0 -100 -138 -205 -306z"/>
<path d="M4490 5538 c0 -31 32 -188 55 -276 158 -578 618 -1034 1199 -1187
338 -90 651 -73 986 52 373 139 681 392 883 724 123 204 182 379 221 662 l5
37 -158 0 -159 0 -7 -57 c-9 -71 -53 -227 -89 -313 -181 -430 -546 -729 -1016
-831 -144 -31 -354 -31 -490 -1 -133 29 -234 64 -353 121 -420 203 -705 572
-770 997 l-12 79 -148 3 c-114 2 -147 0 -147 -10z"/>
<path d="M5105 5508 c20 -121 83 -276 159 -393 157 -241 388 -399 688 -472
117 -29 325 -24 452 10 382 102 681 376 789 722 13 44 28 101 31 128 l7 47
-326 0 -327 0 28 -47 c15 -27 77 -129 139 -228 61 -99 121 -197 134 -217 l23
-38 -249 0 -248 1 -44 77 c-43 75 -219 374 -248 420 l-14 23 -20 -25 c-10 -13
-19 -27 -19 -31 0 -3 -13 -18 -30 -32 l-30 -25 0 -204 0 -204 -200 0 -200 0 0
265 0 265 -251 0 -251 0 7 -42z"/>
<path d="M3520 2834 c-259 -70 -353 -387 -175 -591 122 -139 325 -162 476 -54
251 180 185 557 -112 645 -64 19 -117 19 -189 0z m178 -159 c85 -36 126 -106
120 -206 -3 -58 -8 -74 -34 -106 -46 -57 -98 -83 -166 -83 -70 0 -103 12 -146
53 -64 61 -84 136 -58 215 38 114 172 173 284 127z"/>
<path d="M6675 2836 c-109 -31 -198 -104 -247 -204 -19 -39 -23 -63 -23 -142
0 -82 4 -103 26 -151 91 -194 322 -274 515 -179 63 31 154 110 154 135 0 6
-29 28 -65 48 l-66 38 -26 -31 c-40 -48 -92 -70 -165 -70 -116 0 -198 75 -206
189 -7 98 26 164 99 201 91 47 193 34 262 -32 l41 -39 51 27 c99 54 97 46 30
112 -42 40 -78 65 -120 81 -76 29 -191 36 -260 17z"/>
<path d="M8985 2841 c-142 -37 -227 -166 -181 -274 31 -73 98 -113 269 -157
131 -34 165 -70 114 -118 -19 -18 -35 -22 -83 -22 -70 0 -115 23 -146 75 l-20
36 -77 -3 -76 -3 3 -33 c6 -78 82 -166 171 -197 152 -52 331 -10 388 93 61
108 26 214 -90 273 -20 11 -81 31 -135 45 -141 38 -169 55 -157 95 8 26 62 49
112 49 44 0 98 -30 108 -59 6 -19 14 -21 91 -21 56 0 84 4 84 11 0 31 -26 92
-52 124 -48 58 -119 88 -213 91 -44 2 -93 0 -110 -5z"/>
<path d="M2525 2827 c-3 -6 -4 -165 -3 -352 l3 -340 83 -3 82 -3 0 82 0 82 58
61 c31 34 60 62 64 64 4 2 51 -62 104 -142 l96 -146 104 0 c57 0 104 2 104 6
0 3 -63 94 -139 203 -77 109 -141 202 -143 208 -2 6 40 61 94 124 53 63 106
126 118 142 l21 27 -103 -1 -103 -1 -125 -144 c-69 -79 -126 -149 -128 -154
-2 -6 -8 -10 -13 -10 -5 0 -9 68 -9 155 l0 155 -80 0 c-56 0 -82 -4 -85 -13z"/>
<path d="M4088 2485 l-3 -355 83 0 82 0 0 215 c0 124 4 215 9 215 5 0 11 -4
13 -9 2 -5 80 -102 173 -215 l170 -205 83 -1 82 0 0 355 0 355 -80 0 -80 0 -1
-97 c0 -54 0 -151 0 -215 0 -65 -3 -118 -7 -118 -4 1 -87 97 -185 215 l-178
215 -79 0 -80 0 -2 -355z"/>
<path d="M4930 2485 l0 -355 80 0 80 0 0 217 0 218 25 -25 c13 -14 96 -110
182 -215 l158 -190 83 -3 82 -3 0 356 0 355 -80 0 -80 0 0 -209 c0 -116 -4
-212 -8 -215 -4 -2 -39 34 -77 81 -39 47 -82 99 -96 117 -15 17 -62 74 -106
126 l-79 95 -82 3 -82 3 0 -356z"/>
<path d="M5780 2485 l0 -355 270 0 270 0 0 80 0 80 -190 0 -190 0 0 60 0 60
155 0 155 0 0 70 0 69 -152 3 -153 3 -3 63 -3 62 191 0 191 0 -3 78 -3 77
-267 3 -268 2 0 -355z"/>
<path d="M7228 2833 l-38 -4 0 -75 0 -74 125 0 125 0 0 -275 0 -276 83 3 82 3
0 273 0 272 128 0 128 0 -3 78 -3 77 -295 1 c-162 0 -312 -1 -332 -3z"/>
<path d="M8022 2613 c4 -257 14 -299 84 -381 138 -162 418 -142 533 36 51 79
61 142 61 369 l0 203 -85 0 -85 0 0 -202 c-1 -216 -7 -251 -51 -306 -44 -55
-160 -68 -217 -25 -14 11 -35 37 -46 59 -19 35 -21 59 -24 257 l-3 217 -85 0
-86 0 4 -227z"/>
</g>
</svg>
